<svg width="35" height="20" viewBox="0 0 35 20" fill="none" xmlns="http://www.w3.org/2000/svg">
<path d="M1.17995 4.38425L17.5 19.7568L33.82 4.38425C34.2633 3.96526 34.5057 3.4031 34.4937 2.82144C34.4818 2.23978 34.2165 1.68627 33.7562 1.28267C33.296 0.879066 32.6784 0.658441 32.0395 0.669325C31.4005 0.680208 30.7925 0.921709 30.3491 1.3407L17.5 13.4504L4.63662 1.3407C4.19327 0.921709 3.58524 0.680208 2.94628 0.669325C2.30733 0.658441 1.6898 0.879066 1.22954 1.28267C0.769275 1.68627 0.503986 2.23978 0.492031 2.82144C0.480076 3.4031 0.722435 3.96526 1.16579 4.38425H1.17995Z" fill="white"/>
</svg>
