<svg width="167" height="81" viewBox="0 0 167 81" fill="none" xmlns="http://www.w3.org/2000/svg">
<g clip-path="url(#clip0_220_111)">
<path d="M67.9654 10.4322C67.7897 10.3452 67.6087 10.2652 67.4173 10.2026C65.3713 9.53476 63.1929 10.5817 62.5544 12.5417L54.1386 38.3922L45.7003 12.54C45.14 10.8235 43.4002 9.80781 41.6011 10.0304C39.729 10.1748 38.2449 11.6322 38.1336 13.4513C38.1109 13.6565 38.1092 13.8635 38.1231 14.0704V53.1939C38.1231 55.2096 39.8143 56.8443 41.9004 56.8443C43.9865 56.8443 45.6794 55.2113 45.6794 53.1939V37.5957L50.7528 53.1383C51.2783 54.7487 52.4475 55.9 54.1369 55.9C55.8263 55.9 57.1016 54.4426 57.5262 53.1383L62.5544 37.7348V53.1644C62.5544 55.18 64.2455 56.8148 66.3317 56.8148C68.4178 56.8148 70.1107 55.18 70.1107 53.1644V14.3035C70.1107 13.7713 70.1281 13.2339 69.968 12.733C69.6705 11.7156 68.9345 10.8809 67.9654 10.4322ZM90.9073 10.0009C88.816 10.0009 87.1196 11.7991 87.1196 14.0182V53.1365C87.1196 55.3557 88.816 56.813 90.9073 56.813C93.0004 56.813 94.6968 55.3574 94.6968 53.1365V14.0182C94.695 11.7991 92.9987 10.0009 90.9073 10.0009ZM128.635 51.2809L118.242 26.9348L126.063 15.9922C127.387 14.14 127.118 11.8756 125.414 10.66C123.713 9.44433 121.259 9.95911 119.935 11.8113L114.749 18.7922L109.597 26.0009L106.987 29.6513V14.0356C106.987 11.7591 105.291 10.0009 103.2 10.0009C101.107 10.0009 99.4101 11.7591 99.4101 14.0356V53.1383C99.4101 55.413 101.107 56.8148 103.2 56.8148C105.291 56.8148 106.966 55.4148 106.966 53.1383L106.989 42.6809L113.092 34.1435L121.672 54.2652C122.568 56.3574 124.856 57.3835 126.778 56.5591C128.701 55.7348 129.532 53.3713 128.635 51.2809ZM78.6151 23.8983C80.7082 23.8983 82.4046 22.2026 82.4046 20.1104C82.4046 18.0182 80.7082 16.3226 78.6151 16.3226C76.5221 16.3226 74.8257 18.0182 74.8257 20.1104C74.8257 22.2026 76.5221 23.8983 78.6151 23.8983ZM78.6151 25.0617C76.5221 25.0617 74.8257 26.6183 74.8257 28.54V53.1365C74.8257 55.0583 76.5238 56.8426 78.6151 56.8426C80.7082 56.8426 82.4063 55.0583 82.4063 53.1365V28.54C82.4046 26.62 80.7082 25.0617 78.6151 25.0617Z" fill="black"/>
<path d="M12.7647 60.1406H10V70.7893H12.7647C16.1748 70.7893 18.3775 68.6989 18.3775 65.4641C18.3792 62.2311 16.1748 60.1406 12.7647 60.1406ZM16.9456 65.4659C16.9456 68.0641 15.4284 69.4937 12.6742 69.4937H11.3867V61.4363H12.6742C15.4284 61.4363 16.9456 62.8676 16.9456 65.4659Z" fill="black"/>
<path d="M27.8388 67.4015H32.4791V66.1354H27.8388V61.4224H33.0376V60.1406H26.4521V70.7893H33.2481V69.5093H27.8388V67.4015Z" fill="black"/>
<path d="M49.0064 68.0358C48.213 69.0688 47.0769 69.6149 45.7215 69.6149C43.3953 69.6149 41.7059 67.8706 41.7059 65.4653C41.7059 63.1001 43.3988 61.3158 45.645 61.3158C46.936 61.3158 47.9764 61.8027 48.7367 62.761L48.8916 62.9558L49.9755 62.1749L49.8085 61.961C48.815 60.6897 47.3814 60.0166 45.6606 60.0166C42.5898 60.0166 40.274 62.3575 40.274 65.4601C40.267 66.9627 40.8116 68.3419 41.8103 69.3436C42.8142 70.3506 44.1922 70.9053 45.692 70.9053C47.5414 70.9053 49.0221 70.2062 50.0956 68.8253L50.2626 68.6097L49.1595 67.8306L49.0064 68.0358Z" fill="black"/>
<path d="M62.5613 60.0205C59.447 60.0205 57.0981 62.3614 57.0981 65.4657C57.0981 68.57 59.447 70.9109 62.5613 70.9109C65.6757 70.9109 68.0245 68.57 68.0245 65.4657C68.0245 62.3614 65.6757 60.0205 62.5613 60.0205ZM66.5909 65.4657C66.5909 67.8309 64.858 69.6153 62.5613 69.6153C60.263 69.6153 58.5318 67.8309 58.5318 65.4657C58.5318 63.1005 60.2647 61.3162 62.5613 61.3162C64.858 61.3162 66.5909 63.1005 66.5909 65.4657Z" fill="black"/>
<path d="M82.9545 64.1998C82.9545 61.6954 81.2547 60.1406 78.5161 60.1406H76.082V70.7893H77.4687V68.2293H78.5161C78.8084 68.2293 79.0468 68.2154 79.2712 68.1841L81.2929 70.7893H83.0015L80.6823 67.8293C82.1316 67.212 82.9545 65.9041 82.9545 64.1998ZM81.5226 64.1998C81.5226 66.0067 80.463 66.9633 78.457 66.9633H77.4705V61.4224H78.457C80.9902 61.4224 81.5226 62.9337 81.5226 64.1998Z" fill="black"/>
<path d="M90.1421 70.7887H91.5636L92.2873 69.0113H97.2999L98.008 70.7887H99.4608L94.7927 59.4756L90.1421 70.7887ZM92.7989 67.7313L94.7997 62.8026L96.7744 67.7313H92.7989Z" fill="black"/>
<path d="M104.877 61.4224H108.056V70.7893H109.444V61.4224H112.607V60.1406H104.877V61.4224Z" fill="black"/>
<path d="M121.616 60.1406H120.214V70.7893H121.616V60.1406Z" fill="black"/>
<path d="M135.159 60.0205C132.045 60.0205 129.696 62.3614 129.696 65.4657C129.696 68.57 132.045 70.9109 135.159 70.9109C138.274 70.9109 140.623 68.57 140.623 65.4657C140.623 62.3614 138.274 60.0205 135.159 60.0205ZM135.159 69.6135C132.861 69.6135 131.13 67.8292 131.13 65.464C131.13 63.0988 132.863 61.3144 135.159 61.3144C137.456 61.3144 139.189 63.0988 139.189 65.464C139.189 67.8292 137.458 69.6135 135.159 69.6135Z" fill="black"/>
<path d="M155.672 60.1403V67.8394L148.682 59.4707V70.789H150.009V63.0916L156.532 70.9072L156.617 71.0012H157V60.1403H155.672Z" fill="black"/>
</g>
<defs>
<clipPath id="clip0_220_111">
<rect width="147" height="61.0012" fill="white" transform="translate(10 10)"/>
</clipPath>
</defs>
</svg>
