<svg width="32" height="47" viewBox="0 0 32 47" fill="none" xmlns="http://www.w3.org/2000/svg">
<path d="M29.233 0.433592C29.0609 0.346347 28.8837 0.266081 28.6963 0.203264C26.6926 -0.466782 24.5593 0.583654 23.9341 2.55017L15.6925 28.4866L7.42897 2.54843C6.88027 0.826198 5.1765 -0.19283 3.41465 0.0305179C1.58132 0.175345 0.127954 1.63758 0.0189585 3.46276C-0.00327142 3.66866 -0.00493617 3.8763 0.00867599 4.08395V43.3375C0.00867599 45.3599 1.66485 47 3.70776 47C5.75066 47 7.4085 45.3616 7.4085 43.3375V27.6874L12.3768 43.2817C12.8915 44.8974 14.0364 46.0526 15.6909 46.0526C17.3453 46.0526 18.5942 44.5903 19.01 43.2817L23.9341 27.827V43.3079C23.9341 45.3302 25.5901 46.9704 27.6331 46.9704C29.676 46.9704 31.3339 45.3302 31.3339 43.3079V4.31776C31.3339 3.78382 31.3509 3.24465 31.1941 2.74211C30.9028 1.72134 30.182 0.88378 29.233 0.433592Z" fill="black"/>
</svg>
