<svg width="31" height="32" viewBox="0 0 31 32" fill="none" xmlns="http://www.w3.org/2000/svg">
<path d="M29.7503 30.6252L22.693 23.5678M22.693 23.5678C23.9002 22.3606 24.8577 20.9274 25.5111 19.3502C26.1644 17.7729 26.5007 16.0824 26.5007 14.3752C26.5007 12.6679 26.1644 10.9774 25.5111 9.40014C24.8578 7.82287 23.9002 6.38972 22.693 5.18253C21.4858 3.97533 20.0526 3.01774 18.4753 2.36441C16.8981 1.71108 15.2076 1.37482 13.5003 1.37482C11.7931 1.37482 10.1026 1.71108 8.52532 2.36441C6.94805 3.01774 5.5149 3.97533 4.30771 5.18253C1.86967 7.62056 0.5 10.9272 0.5 14.3752C0.5 17.8231 1.86967 21.1297 4.30771 23.5678C6.74575 26.0058 10.0524 27.3755 13.5003 27.3755C16.9482 27.3755 20.2549 26.0058 22.693 23.5678Z" stroke="black" stroke-linecap="round" stroke-linejoin="round"/>
</svg>
